<svg width="209" height="209" viewBox="0 0 209 209" fill="none" xmlns="http://www.w3.org/2000/svg">
<rect width="209" height="209" rx="10" transform="matrix(1 8.74228e-08 8.74228e-08 -1 0 209)" fill="#131313"/>
<path fill-rule="evenodd" clip-rule="evenodd" d="M76 145C76 143.343 77.3431 142 79 142L137 142C139.761 142 142 139.761 142 137L142 72C142 69.2386 139.761 67 137 67L73 67C69.6863 67 67 69.6863 67 73L67 130C67 131.657 65.6569 133 64 133L30 133C28.3431 133 27 131.657 27 130L27 73C27 47.5949 47.5949 27 73 27L137 27C161.853 27 182 47.1472 182 72L182 137C182 161.853 161.853 182 137 182L79 182C77.3431 182 76 180.657 76 179L76 145Z" fill="white"/>
<rect width="40" height="40" rx="3" transform="matrix(1 8.74228e-08 8.74228e-08 -1 27 182)" fill="white"/>
</svg>
