<svg width="155" height="155" viewBox="0 0 155 155" fill="none" xmlns="http://www.w3.org/2000/svg">
<path fill-rule="evenodd" clip-rule="evenodd" d="M49 118C49 116.343 50.3431 115 52 115L110 115C112.761 115 115 112.761 115 110L115 45C115 42.2386 112.761 40 110 40L46 40C42.6863 40 40 42.6863 40 46L40 103C40 104.657 38.6569 106 37 106L3 106C1.34315 106 4.40114e-06 104.657 4.54598e-06 103L9.52908e-06 46C1.17501e-05 20.5949 20.5949 1.80046e-06 46 4.02145e-06L110 9.61651e-06C134.853 1.17892e-05 155 20.1472 155 45L155 110C155 134.853 134.853 155 110 155L52 155C50.3431 155 49 153.657 49 152L49 118Z" fill="white"/>
<rect width="40" height="40" rx="3" transform="matrix(1 8.74228e-08 8.74228e-08 -1 0 155)" fill="white"/>
</svg>
